<?xml version="1.0" encoding="utf-8" standalone="no"?>
<!DOCTYPE svg PUBLIC "-//W3C//DTD SVG 1.1//EN"
  "http://www.w3.org/Graphics/SVG/1.1/DTD/svg11.dtd">
<!-- Created with matplotlib (http://matplotlib.sourceforge.net/) -->
<svg height="1080pt" version="1.1" viewBox="0 0 1440 1080" width="1440pt" xmlns="http://www.w3.org/2000/svg" xmlns:xlink="http://www.w3.org/1999/xlink">
 <defs>
  <style type="text/css">
*{stroke-linecap:square;stroke-linejoin:round;}
  </style>
 </defs>
 <g id="figure_1">
  <g id="patch_1">
   <path d="
M0 1080
L1440 1080
L1440 0
L0 0
z
" style="fill:#ffffff;"/>
  </g>
  <g id="axes_1">
   <g id="patch_2">
    <path d="
M180 972
L1296 972
L1296 108
L180 108
z
" style="fill:#ffffff;"/>
   </g>
   <g id="line2d_1">
    <path clip-path="url(#p2779b25a8c)" d="
M827.038 108
L833.374 108
L839.628 108
L845.802 108
L850.686 108
L851.293 108
L851.778 108
L851.838 108
L851.887 108
L851.899 108
L851.911 847.242
L851.96 851.763
L852.02 851.892
L852.504 857.052
L853.109 855.053
L853.713 850.104
L854.316 854.856
L854.919 108
L855.52 860.241
L856.121 860.835
L856.722 859.217
L857.321 850.186" style="fill:none;stroke:#0000ff;stroke-width:2;"/>
   </g>
   <g id="line2d_2">
    <path clip-path="url(#p2779b25a8c)" d="
M1175.58 739.037
L1178.67 746.775
L1181.75 747.376
L1184.81 749.451
L1187.24 750.902
L1187.55 750.334
L1187.79 749.679
L1187.82 753.931
L1187.84 751.376
L1187.85 749.503
L1187.85 748.965
L1187.88 751.896
L1187.91 754.219
L1188.15 756.62
L1188.45 757.974
L1188.76 758.696
L1189.06 757.459
L1189.36 755.654
L1189.66 758.221
L1189.96 760.524
L1190.27 754.514
L1190.57 757.518
L1190.87 754.734
L1192.37 761.169
L1193.87 762.232
L1196.85 768.176
L1199.82 775.854" style="fill:none;stroke:#008000;stroke-width:2;"/>
   </g>
   <g id="matplotlib.axis_1">
    <g id="xtick_1">
     <g id="line2d_3">
      <defs>
       <path d="
M0 0
L0 -4" id="m0012dd4eef" style="stroke:#000000;stroke-linecap:butt;stroke-width:0.5;"/>
      </defs>
      <g>
       <use style="stroke:#000000;stroke-linecap:butt;stroke-width:0.5;" x="180.0" xlink:href="#m0012dd4eef" y="972.0"/>
      </g>
     </g>
     <g id="line2d_4">
      <defs>
       <path d="
M0 0
L0 4" id="m476344969c" style="stroke:#000000;stroke-linecap:butt;stroke-width:0.5;"/>
      </defs>
      <g>
       <use style="stroke:#000000;stroke-linecap:butt;stroke-width:0.5;" x="180.0" xlink:href="#m476344969c" y="108.0"/>
      </g>
     </g>
     <g id="text_1">
      <!-- $10^{-2}$ -->
      <defs>
       <path d="
M65.9062 23
C67.5938 23 69.4062 23 69.4062 25
C69.4062 27 67.5938 27 65.9062 27
L11.7969 27
C10.0938 27 8.29688 27 8.29688 25
C8.29688 23 10.0938 23 11.7969 23
z
" id="CMSY10-0"/>
       <path d="
M41.7031 15.4531
L39.9062 15.4531
C38.9062 8.375 38.0938 7.17188 37.7031 6.5625
C37.2031 5.76562 30 5.76562 28.5938 5.76562
L9.40625 5.76562
C13 9.67188 20 16.75 28.5 24.9531
C34.5938 30.7344 41.7031 37.5312 41.7031 47.4219
C41.7031 59.2188 32.2969 66 21.7969 66
C10.7969 66 4.09375 56.3125 4.09375 47.3438
C4.09375 43.4375 7 42.9375 8.20312 42.9375
C9.20312 42.9375 12.2031 43.5469 12.2031 47.0312
C12.2031 50.1094 9.59375 51 8.20312 51
C7.59375 51 7 50.9062 6.59375 50.7031
C8.5 59.2188 14.2969 63.4062 20.4062 63.4062
C29.0938 63.4062 34.7969 56.5156 34.7969 47.4219
C34.7969 38.7344 29.7031 31.25 24 24.75
L4.09375 2.28125
L4.09375 0
L39.2969 0
z
" id="CMR17-50"/>
       <path d="
M26.5938 63.3125
C26.5938 65.4062 26.5 65.5 25.0938 65.5
C21.2031 61.1875 15.2969 59.7969 9.70312 59.7969
C9.40625 59.7969 8.90625 59.7969 8.79688 59.5
C8.70312 59.2969 8.70312 59.0938 8.70312 57
C11.7969 57 17 57.5938 21 59.9844
L21 7.20312
C21 3.6875 20.7969 2.5 12.2031 2.5
L9.20312 2.5
L9.20312 0
C14 0 19 0 23.7969 0
C28.5938 0 33.5938 0 38.4062 0
L38.4062 2.5
L35.4062 2.5
C26.7969 2.5 26.5938 3.59375 26.5938 7.15625
z
" id="CMR17-49"/>
       <path d="
M42 31.6406
C42 37.75 41.9062 48.125 37.7031 56.1094
C34 63.1094 28.0938 65.5938 22.9062 65.5938
C18.0938 65.5938 12 63.4062 8.20312 56.2031
C4.20312 48.7188 3.79688 39.4375 3.79688 31.6406
C3.79688 25.9531 3.90625 17.2812 7 9.67188
C11.2969 -0.609375 19 -2 22.9062 -2
C27.5 -2 34.5 -0.109375 38.5938 9.375
C41.5938 16.2812 42 24.3594 42 31.6406
M22.9062 -0.40625
C16.5 -0.40625 12.7031 5.07812 11.2969 12.6875
C10.2031 18.5625 10.2031 27.1562 10.2031 32.75
C10.2031 40.4375 10.2031 46.8281 11.5 52.9219
C13.4062 61.3906 19 64 22.9062 64
C27 64 32.2969 61.2969 34.2031 53.125
C35.5 47.4375 35.5938 40.7344 35.5938 32.75
C35.5938 26.25 35.5938 18.2656 34.4062 12.375
C32.2969 1.48438 26.4062 -0.40625 22.9062 -0.40625" id="CMR17-48"/>
      </defs>
      <g transform="translate(135.598717638 1016.55382525)scale(0.5 -0.5)">
       <use transform="scale(0.996264009963)" xlink:href="#CMR17-49"/>
       <use transform="translate(45.6904771171 0.0)scale(0.996264009963)" xlink:href="#CMR17-48"/>
       <use transform="translate(91.3809542341 36.1536389419)scale(0.697381766617)" xlink:href="#CMSY10-0"/>
       <use transform="translate(145.621947482 36.1536389419)scale(0.697381766617)" xlink:href="#CMR17-50"/>
      </g>
     </g>
    </g>
    <g id="xtick_2">
     <g id="line2d_5">
      <g>
       <use style="stroke:#000000;stroke-linecap:butt;stroke-width:0.5;" x="1296.0" xlink:href="#m0012dd4eef" y="972.0"/>
      </g>
     </g>
     <g id="line2d_6">
      <g>
       <use style="stroke:#000000;stroke-linecap:butt;stroke-width:0.5;" x="1296.0" xlink:href="#m476344969c" y="108.0"/>
      </g>
     </g>
     <g id="text_2">
      <!-- $10^{-1}$ -->
      <g transform="translate(1251.59871764 1016.55382525)scale(0.5 -0.5)">
       <use transform="scale(0.996264009963)" xlink:href="#CMR17-49"/>
       <use transform="translate(45.6904771171 0.0)scale(0.996264009963)" xlink:href="#CMR17-48"/>
       <use transform="translate(91.3809542341 36.1536389419)scale(0.697381766617)" xlink:href="#CMSY10-0"/>
       <use transform="translate(145.621947482 36.1536389419)scale(0.697381766617)" xlink:href="#CMR17-49"/>
      </g>
     </g>
    </g>
    <g id="xtick_3">
     <g id="line2d_7">
      <defs>
       <path d="
M0 0
L0 -2" id="m69b1a1edd1" style="stroke:#000000;stroke-linecap:butt;stroke-width:0.5;"/>
      </defs>
      <g>
       <use style="stroke:#000000;stroke-linecap:butt;stroke-width:0.5;" x="515.949475161" xlink:href="#m69b1a1edd1" y="972.0"/>
      </g>
     </g>
     <g id="line2d_8">
      <defs>
       <path d="
M0 0
L0 2" id="m9ad4d917ad" style="stroke:#000000;stroke-linecap:butt;stroke-width:0.5;"/>
      </defs>
      <g>
       <use style="stroke:#000000;stroke-linecap:butt;stroke-width:0.5;" x="515.949475161" xlink:href="#m9ad4d917ad" y="108.0"/>
      </g>
     </g>
    </g>
    <g id="xtick_4">
     <g id="line2d_9">
      <g>
       <use style="stroke:#000000;stroke-linecap:butt;stroke-width:0.5;" x="712.467320267" xlink:href="#m69b1a1edd1" y="972.0"/>
      </g>
     </g>
     <g id="line2d_10">
      <g>
       <use style="stroke:#000000;stroke-linecap:butt;stroke-width:0.5;" x="712.467320267" xlink:href="#m9ad4d917ad" y="108.0"/>
      </g>
     </g>
    </g>
    <g id="xtick_5">
     <g id="line2d_11">
      <g>
       <use style="stroke:#000000;stroke-linecap:butt;stroke-width:0.5;" x="851.898950322" xlink:href="#m69b1a1edd1" y="972.0"/>
      </g>
     </g>
     <g id="line2d_12">
      <g>
       <use style="stroke:#000000;stroke-linecap:butt;stroke-width:0.5;" x="851.898950322" xlink:href="#m9ad4d917ad" y="108.0"/>
      </g>
     </g>
    </g>
    <g id="xtick_6">
     <g id="line2d_13">
      <g>
       <use style="stroke:#000000;stroke-linecap:butt;stroke-width:0.5;" x="960.050524839" xlink:href="#m69b1a1edd1" y="972.0"/>
      </g>
     </g>
     <g id="line2d_14">
      <g>
       <use style="stroke:#000000;stroke-linecap:butt;stroke-width:0.5;" x="960.050524839" xlink:href="#m9ad4d917ad" y="108.0"/>
      </g>
     </g>
    </g>
    <g id="xtick_7">
     <g id="line2d_15">
      <g>
       <use style="stroke:#000000;stroke-linecap:butt;stroke-width:0.5;" x="1048.41679543" xlink:href="#m69b1a1edd1" y="972.0"/>
      </g>
     </g>
     <g id="line2d_16">
      <g>
       <use style="stroke:#000000;stroke-linecap:butt;stroke-width:0.5;" x="1048.41679543" xlink:href="#m9ad4d917ad" y="108.0"/>
      </g>
     </g>
    </g>
    <g id="xtick_8">
     <g id="line2d_17">
      <g>
       <use style="stroke:#000000;stroke-linecap:butt;stroke-width:0.5;" x="1123.12941266" xlink:href="#m69b1a1edd1" y="972.0"/>
      </g>
     </g>
     <g id="line2d_18">
      <g>
       <use style="stroke:#000000;stroke-linecap:butt;stroke-width:0.5;" x="1123.12941266" xlink:href="#m9ad4d917ad" y="108.0"/>
      </g>
     </g>
    </g>
    <g id="xtick_9">
     <g id="line2d_19">
      <g>
       <use style="stroke:#000000;stroke-linecap:butt;stroke-width:0.5;" x="1187.84842548" xlink:href="#m69b1a1edd1" y="972.0"/>
      </g>
     </g>
     <g id="line2d_20">
      <g>
       <use style="stroke:#000000;stroke-linecap:butt;stroke-width:0.5;" x="1187.84842548" xlink:href="#m9ad4d917ad" y="108.0"/>
      </g>
     </g>
    </g>
    <g id="xtick_10">
     <g id="line2d_21">
      <g>
       <use style="stroke:#000000;stroke-linecap:butt;stroke-width:0.5;" x="1244.93464053" xlink:href="#m69b1a1edd1" y="972.0"/>
      </g>
     </g>
     <g id="line2d_22">
      <g>
       <use style="stroke:#000000;stroke-linecap:butt;stroke-width:0.5;" x="1244.93464053" xlink:href="#m9ad4d917ad" y="108.0"/>
      </g>
     </g>
    </g>
    <g id="text_3">
     <!-- $\epsilon$ -->
     <defs>
      <path d="
M29.0938 22.8594
C30.5938 22.8594 32.2969 22.8594 32.2969 24.4531
C32.2969 25.75 31.2969 25.75 29.5 25.75
L13.2969 25.75
C15.7969 34.7656 21.7031 40.2031 30.5938 40.2031
L33.5 40.2031
C35.2031 40.2031 36.7031 40.2031 36.7031 41.7969
C36.7031 43.0938 35.5938 43.0938 33.7969 43.0938
L30.4062 43.0938
C18.0938 43.0938 4.59375 33.2969 4.59375 17.5938
C4.59375 6.5 12.0938 -1 22 -1
C28.4062 -1 34.7031 3.01562 34.7031 4.03125
C34.7031 4.625 34.4062 5.23438 33.7969 5.23438
C33.5 5.23438 33.2969 5.125 32.7969 4.73438
C29 2.21875 25.2969 1 22.2969 1
C17 1 11.4062 4.53125 11.4062 14.2969
C11.4062 16.2031 11.5938 18.8281 12.5 22.8594
z
" id="CMMI12-15"/>
     </defs>
     <g transform="translate(728.152764231 1043.00119912)scale(0.5 -0.5)">
      <use transform="scale(0.996264009963)" xlink:href="#CMMI12-15"/>
     </g>
    </g>
   </g>
   <g id="matplotlib.axis_2">
    <g id="ytick_1">
     <g id="line2d_23">
      <defs>
       <path d="
M0 0
L4 0" id="me8a85f7bf6" style="stroke:#000000;stroke-linecap:butt;stroke-width:0.5;"/>
      </defs>
      <g>
       <use style="stroke:#000000;stroke-linecap:butt;stroke-width:0.5;" x="180.0" xlink:href="#me8a85f7bf6" y="972.0"/>
      </g>
     </g>
     <g id="line2d_24">
      <defs>
       <path d="
M0 0
L-4 0" id="m1a32005dea" style="stroke:#000000;stroke-linecap:butt;stroke-width:0.5;"/>
      </defs>
      <g>
       <use style="stroke:#000000;stroke-linecap:butt;stroke-width:0.5;" x="1296.0" xlink:href="#m1a32005dea" y="972.0"/>
      </g>
     </g>
     <g id="text_4">
      <!-- $10^{-2}$ -->
      <g transform="translate(87.1974352769 992.276912627)scale(0.5 -0.5)">
       <use transform="scale(0.996264009963)" xlink:href="#CMR17-49"/>
       <use transform="translate(45.6904771171 0.0)scale(0.996264009963)" xlink:href="#CMR17-48"/>
       <use transform="translate(91.3809542341 36.1536389419)scale(0.697381766617)" xlink:href="#CMSY10-0"/>
       <use transform="translate(145.621947482 36.1536389419)scale(0.697381766617)" xlink:href="#CMR17-50"/>
      </g>
     </g>
    </g>
    <g id="ytick_2">
     <g id="line2d_25">
      <g>
       <use style="stroke:#000000;stroke-linecap:butt;stroke-width:0.5;" x="180.0" xlink:href="#me8a85f7bf6" y="540.0"/>
      </g>
     </g>
     <g id="line2d_26">
      <g>
       <use style="stroke:#000000;stroke-linecap:butt;stroke-width:0.5;" x="1296.0" xlink:href="#m1a32005dea" y="540.0"/>
      </g>
     </g>
     <g id="text_5">
      <!-- $10^{-1}$ -->
      <g transform="translate(87.1974352769 560.276912627)scale(0.5 -0.5)">
       <use transform="scale(0.996264009963)" xlink:href="#CMR17-49"/>
       <use transform="translate(45.6904771171 0.0)scale(0.996264009963)" xlink:href="#CMR17-48"/>
       <use transform="translate(91.3809542341 36.1536389419)scale(0.697381766617)" xlink:href="#CMSY10-0"/>
       <use transform="translate(145.621947482 36.1536389419)scale(0.697381766617)" xlink:href="#CMR17-49"/>
      </g>
     </g>
    </g>
    <g id="ytick_3">
     <g id="line2d_27">
      <g>
       <use style="stroke:#000000;stroke-linecap:butt;stroke-width:0.5;" x="180.0" xlink:href="#me8a85f7bf6" y="108.0"/>
      </g>
     </g>
     <g id="line2d_28">
      <g>
       <use style="stroke:#000000;stroke-linecap:butt;stroke-width:0.5;" x="1296.0" xlink:href="#m1a32005dea" y="108.0"/>
      </g>
     </g>
     <g id="text_6">
      <!-- $10^{0}$ -->
      <g transform="translate(114.317931901 128.276912627)scale(0.5 -0.5)">
       <use transform="scale(0.996264009963)" xlink:href="#CMR17-49"/>
       <use transform="translate(45.6904771171 0.0)scale(0.996264009963)" xlink:href="#CMR17-48"/>
       <use transform="translate(91.3809542341 36.1536389419)scale(0.697381766617)" xlink:href="#CMR17-48"/>
      </g>
     </g>
    </g>
    <g id="ytick_4">
     <g id="line2d_29">
      <defs>
       <path d="
M0 0
L2 0" id="md1aed85dae" style="stroke:#000000;stroke-linecap:butt;stroke-width:0.5;"/>
      </defs>
      <g>
       <use style="stroke:#000000;stroke-linecap:butt;stroke-width:0.5;" x="180.0" xlink:href="#md1aed85dae" y="841.955041873"/>
      </g>
     </g>
     <g id="line2d_30">
      <defs>
       <path d="
M0 0
L-2 0" id="m544cce01ee" style="stroke:#000000;stroke-linecap:butt;stroke-width:0.5;"/>
      </defs>
      <g>
       <use style="stroke:#000000;stroke-linecap:butt;stroke-width:0.5;" x="1296.0" xlink:href="#m544cce01ee" y="841.955041873"/>
      </g>
     </g>
    </g>
    <g id="ytick_5">
     <g id="line2d_31">
      <g>
       <use style="stroke:#000000;stroke-linecap:butt;stroke-width:0.5;" x="180.0" xlink:href="#md1aed85dae" y="765.883617961"/>
      </g>
     </g>
     <g id="line2d_32">
      <g>
       <use style="stroke:#000000;stroke-linecap:butt;stroke-width:0.5;" x="1296.0" xlink:href="#m544cce01ee" y="765.883617961"/>
      </g>
     </g>
    </g>
    <g id="ytick_6">
     <g id="line2d_33">
      <g>
       <use style="stroke:#000000;stroke-linecap:butt;stroke-width:0.5;" x="180.0" xlink:href="#md1aed85dae" y="711.910083746"/>
      </g>
     </g>
     <g id="line2d_34">
      <g>
       <use style="stroke:#000000;stroke-linecap:butt;stroke-width:0.5;" x="1296.0" xlink:href="#m544cce01ee" y="711.910083746"/>
      </g>
     </g>
    </g>
    <g id="ytick_7">
     <g id="line2d_35">
      <g>
       <use style="stroke:#000000;stroke-linecap:butt;stroke-width:0.5;" x="180.0" xlink:href="#md1aed85dae" y="670.044958127"/>
      </g>
     </g>
     <g id="line2d_36">
      <g>
       <use style="stroke:#000000;stroke-linecap:butt;stroke-width:0.5;" x="1296.0" xlink:href="#m544cce01ee" y="670.044958127"/>
      </g>
     </g>
    </g>
    <g id="ytick_8">
     <g id="line2d_37">
      <g>
       <use style="stroke:#000000;stroke-linecap:butt;stroke-width:0.5;" x="180.0" xlink:href="#md1aed85dae" y="635.838659834"/>
      </g>
     </g>
     <g id="line2d_38">
      <g>
       <use style="stroke:#000000;stroke-linecap:butt;stroke-width:0.5;" x="1296.0" xlink:href="#m544cce01ee" y="635.838659834"/>
      </g>
     </g>
    </g>
    <g id="ytick_9">
     <g id="line2d_39">
      <g>
       <use style="stroke:#000000;stroke-linecap:butt;stroke-width:0.5;" x="180.0" xlink:href="#md1aed85dae" y="606.917646714"/>
      </g>
     </g>
     <g id="line2d_40">
      <g>
       <use style="stroke:#000000;stroke-linecap:butt;stroke-width:0.5;" x="1296.0" xlink:href="#m544cce01ee" y="606.917646714"/>
      </g>
     </g>
    </g>
    <g id="ytick_10">
     <g id="line2d_41">
      <g>
       <use style="stroke:#000000;stroke-linecap:butt;stroke-width:0.5;" x="180.0" xlink:href="#md1aed85dae" y="581.865125619"/>
      </g>
     </g>
     <g id="line2d_42">
      <g>
       <use style="stroke:#000000;stroke-linecap:butt;stroke-width:0.5;" x="1296.0" xlink:href="#m544cce01ee" y="581.865125619"/>
      </g>
     </g>
    </g>
    <g id="ytick_11">
     <g id="line2d_43">
      <g>
       <use style="stroke:#000000;stroke-linecap:butt;stroke-width:0.5;" x="180.0" xlink:href="#md1aed85dae" y="559.767235922"/>
      </g>
     </g>
     <g id="line2d_44">
      <g>
       <use style="stroke:#000000;stroke-linecap:butt;stroke-width:0.5;" x="1296.0" xlink:href="#m544cce01ee" y="559.767235922"/>
      </g>
     </g>
    </g>
    <g id="ytick_12">
     <g id="line2d_45">
      <g>
       <use style="stroke:#000000;stroke-linecap:butt;stroke-width:0.5;" x="180.0" xlink:href="#md1aed85dae" y="409.955041873"/>
      </g>
     </g>
     <g id="line2d_46">
      <g>
       <use style="stroke:#000000;stroke-linecap:butt;stroke-width:0.5;" x="1296.0" xlink:href="#m544cce01ee" y="409.955041873"/>
      </g>
     </g>
    </g>
    <g id="ytick_13">
     <g id="line2d_47">
      <g>
       <use style="stroke:#000000;stroke-linecap:butt;stroke-width:0.5;" x="180.0" xlink:href="#md1aed85dae" y="333.883617961"/>
      </g>
     </g>
     <g id="line2d_48">
      <g>
       <use style="stroke:#000000;stroke-linecap:butt;stroke-width:0.5;" x="1296.0" xlink:href="#m544cce01ee" y="333.883617961"/>
      </g>
     </g>
    </g>
    <g id="ytick_14">
     <g id="line2d_49">
      <g>
       <use style="stroke:#000000;stroke-linecap:butt;stroke-width:0.5;" x="180.0" xlink:href="#md1aed85dae" y="279.910083746"/>
      </g>
     </g>
     <g id="line2d_50">
      <g>
       <use style="stroke:#000000;stroke-linecap:butt;stroke-width:0.5;" x="1296.0" xlink:href="#m544cce01ee" y="279.910083746"/>
      </g>
     </g>
    </g>
    <g id="ytick_15">
     <g id="line2d_51">
      <g>
       <use style="stroke:#000000;stroke-linecap:butt;stroke-width:0.5;" x="180.0" xlink:href="#md1aed85dae" y="238.044958127"/>
      </g>
     </g>
     <g id="line2d_52">
      <g>
       <use style="stroke:#000000;stroke-linecap:butt;stroke-width:0.5;" x="1296.0" xlink:href="#m544cce01ee" y="238.044958127"/>
      </g>
     </g>
    </g>
    <g id="ytick_16">
     <g id="line2d_53">
      <g>
       <use style="stroke:#000000;stroke-linecap:butt;stroke-width:0.5;" x="180.0" xlink:href="#md1aed85dae" y="203.838659834"/>
      </g>
     </g>
     <g id="line2d_54">
      <g>
       <use style="stroke:#000000;stroke-linecap:butt;stroke-width:0.5;" x="1296.0" xlink:href="#m544cce01ee" y="203.838659834"/>
      </g>
     </g>
    </g>
    <g id="ytick_17">
     <g id="line2d_55">
      <g>
       <use style="stroke:#000000;stroke-linecap:butt;stroke-width:0.5;" x="180.0" xlink:href="#md1aed85dae" y="174.917646714"/>
      </g>
     </g>
     <g id="line2d_56">
      <g>
       <use style="stroke:#000000;stroke-linecap:butt;stroke-width:0.5;" x="1296.0" xlink:href="#m544cce01ee" y="174.917646714"/>
      </g>
     </g>
    </g>
    <g id="ytick_18">
     <g id="line2d_57">
      <g>
       <use style="stroke:#000000;stroke-linecap:butt;stroke-width:0.5;" x="180.0" xlink:href="#md1aed85dae" y="149.865125619"/>
      </g>
     </g>
     <g id="line2d_58">
      <g>
       <use style="stroke:#000000;stroke-linecap:butt;stroke-width:0.5;" x="1296.0" xlink:href="#m544cce01ee" y="149.865125619"/>
      </g>
     </g>
    </g>
    <g id="ytick_19">
     <g id="line2d_59">
      <g>
       <use style="stroke:#000000;stroke-linecap:butt;stroke-width:0.5;" x="180.0" xlink:href="#md1aed85dae" y="127.767235922"/>
      </g>
     </g>
     <g id="line2d_60">
      <g>
       <use style="stroke:#000000;stroke-linecap:butt;stroke-width:0.5;" x="1296.0" xlink:href="#m544cce01ee" y="127.767235922"/>
      </g>
     </g>
    </g>
    <g id="text_7">
     <!-- $L^{\infty}$ error -->
     <defs>
      <path d="
M51.2969 24
C51.2969 31.875 50.7031 36.5938 49.2031 40.4219
C45.7969 48.875 37.7969 54 28 54
C13.4062 54 4 42.8438 4 25.7031
C4 8.54688 13.0938 -2 27.7969 -2
C39.7969 -2 48.0938 4.875 50.2031 16.375
L41.7969 16.375
C39.5 9.35938 34.7969 5.70312 28.0938 5.70312
C22.7969 5.70312 18.2969 8.14062 15.5 12.6094
C13.5 15.6562 12.7969 18.7188 12.7031 24
z

M12.9062 30.8125
C13.5938 40.1875 19.5 46.2812 27.9062 46.2812
C36.0938 46.2812 42.4062 39.7031 42.4062 31.4062
C42.4062 31.2031 42.4062 31.0156 42.2969 30.8125
z
" id="Nimbus_Sans_L_Regular-101"/>
      <path d="
M36.7031 60.3281
C37.5938 64.1094 37.9062 65.1094 46.7031 65.1094
C49.4062 65.1094 50.0938 65.1094 50.0938 67
C50.0938 68 49 68 48.5938 68
C46.5938 68 44.2969 68 42.2969 68
L28.9062 68
C27 68 24.7969 68 22.9062 68
C22.0938 68 21 68 21 66.1094
C21 65.1094 21.9062 65.1094 23.4062 65.1094
C29.5 65.1094 29.5 64.3125 29.5 63.2031
C29.5 63.0156 29.5 62.4062 29.0938 60.9219
L15.5938 7.375
C14.7031 3.89062 14.5 2.89062 7.5 2.89062
C5.59375 2.89062 4.59375 2.89062 4.59375 1.09375
C4.59375 0 5.20312 0 7.20312 0
L52 0
C54.2031 0 54.2969 0.09375 55 1.89062
L62.7031 23.0938
C62.9062 23.5938 63.0938 24.1875 63.0938 24.4844
C63.0938 25.0781 62.5938 25.4844 62.0938 25.4844
C62 25.4844 61.5 25.4844 61.2969 25.0938
C61.0938 25 61.0938 24.7969 60.2969 22.9062
C57.0938 14.1406 52.5938 2.89062 35.7031 2.89062
L26.0938 2.89062
C24.7031 2.89062 24.5 2.89062 23.9062 3
C22.7969 3.09375 22.7031 3.29688 22.7031 4.09375
C22.7031 4.79688 22.9062 5.39062 23.0938 6.26562
z
" id="CMMI12-76"/>
      <path d="
M27.2031 54
C12.5 54 3.59375 43.5312 3.59375 26
C3.59375 8.45312 12.4062 -2 27.2969 -2
C42 -2 51 8.45312 51 25.5938
C51 43.6406 42.2969 54 27.2031 54
M27.2969 46.2812
C36.7031 46.2812 42.2969 38.625 42.2969 25.7031
C42.2969 13.4531 36.5 5.70312 27.2969 5.70312
C18 5.70312 12.2969 13.3594 12.2969 26
C12.2969 38.5312 18 46.2812 27.2969 46.2812" id="Nimbus_Sans_L_Regular-111"/>
      <path d="
M50.7969 27.0625
C45.4062 33.8594 44.2031 35.3594 41.0938 37.8594
C35.5 42.3438 29.9062 44.1406 24.7969 44.1406
C13.0938 44.1406 5.5 33.1562 5.5 21.4688
C5.5 9.98438 12.9062 -1.09375 24.4062 -1.09375
C35.9062 -1.09375 44.2031 7.98438 49.0938 15.9688
C54.5 9.1875 55.7031 7.6875 58.7969 5.1875
C64.4062 0.703125 70 -1.09375 75.0938 -1.09375
C86.7969 -1.09375 94.4062 9.89062 94.4062 21.5625
C94.4062 33.0469 87 44.1406 75.5 44.1406
C64 44.1406 55.7031 35.0469 50.7969 27.0625
M53.4062 23.6562
C57.5 30.8594 64.9062 40.9375 76.2031 40.9375
C86.7969 40.9375 92.2031 30.5469 92.2031 21.5625
C92.2031 11.7656 85.5 3.6875 76.7031 3.6875
C70.9062 3.6875 66.4062 7.89062 64.2969 9.96875
C61.7969 12.6719 59.5 15.7656 53.4062 23.6562
M46.5 19.375
C42.4062 12.1875 35 2.09375 23.7031 2.09375
C13.0938 2.09375 7.70312 12.4844 7.70312 21.4688
C7.70312 31.25 14.4062 39.3438 23.2031 39.3438
C29 39.3438 33.5 35.1406 35.5938 33.0469
C38.0938 30.3594 40.4062 27.25 46.5 19.375" id="CMSY10-49"/>
      <path d="
M6.90625 52.4844
L6.90625 0
L15.2969 0
L15.2969 27.25
C15.2969 34.7656 17.2031 39.6719 21.2031 42.5781
C23.7969 44.4844 26.2969 45.0781 32.0938 45.0781
L32.0938 53.7031
C30.7031 53.8906 30 54 28.9062 54
C23.5 54 19.4062 50.7812 14.5938 42.9688
L14.5938 52.4844
z
" id="Nimbus_Sans_L_Regular-114"/>
     </defs>
     <g transform="translate(82.1974352769 633.777408814)rotate(-90.0)scale(0.5 -0.5)">
      <use transform="translate(0.0 1.79267018699)scale(0.996264009963)" xlink:href="#CMMI12-76"/>
      <use transform="translate(66.3708754524 37.9463091289)scale(0.697381766617)" xlink:href="#CMSY10-49"/>
      <use transform="translate(164.302551346 1.79267018699)scale(0.996264009963)" xlink:href="#Nimbus_Sans_L_Regular-101"/>
      <use transform="translate(219.694228309 1.79267018699)scale(0.996264009963)" xlink:href="#Nimbus_Sans_L_Regular-114"/>
      <use transform="translate(252.869458038 1.79267018699)scale(0.996264009963)" xlink:href="#Nimbus_Sans_L_Regular-114"/>
      <use transform="translate(286.044687768 1.79267018699)scale(0.996264009963)" xlink:href="#Nimbus_Sans_L_Regular-111"/>
      <use transform="translate(341.436364731 1.79267018699)scale(0.996264009963)" xlink:href="#Nimbus_Sans_L_Regular-114"/>
     </g>
    </g>
   </g>
   <g id="patch_3">
    <path d="
M180 108
L1296 108" style="fill:none;stroke:#000000;"/>
   </g>
   <g id="patch_4">
    <path d="
M1296 972
L1296 108" style="fill:none;stroke:#000000;"/>
   </g>
   <g id="patch_5">
    <path d="
M180 972
L1296 972" style="fill:none;stroke:#000000;"/>
   </g>
   <g id="patch_6">
    <path d="
M180 972
L180 108" style="fill:none;stroke:#000000;"/>
   </g>
   <g id="legend_1">
    <g id="patch_7">
     <path d="
M685.835 251.819
L1276 251.819
L1276 128
L685.835 128
L685.835 251.819
z
" style="fill:#ffffff;stroke:#000000;"/>
    </g>
    <g id="line2d_61">
     <path d="
M713.835 161.666
L769.835 161.666" style="fill:none;stroke:#0000ff;stroke-width:2;"/>
    </g>
    <g id="line2d_62"/>
    <g id="text_8">
     <!-- $errors_dt=0.0001_Nx=100$ -->
     <defs>
      <path d="
M17.9062 23.1094
C20.5938 23.1094 27.4062 23.1094 32.2031 24.9219
C39.7969 27.8594 40.5 33.7188 40.5 35.5312
C40.5 39.9688 36.7031 44 30.0938 44
C19.5938 44 4.5 34.5312 4.5 16.7656
C4.5 6.28125 10.5 -1 19.5938 -1
C33.2031 -1 41.7969 9.53125 41.7969 10.8125
C41.7969 11.4062 41.2031 11.9062 40.7969 11.9062
C40.5 11.9062 40.4062 11.8125 39.5 10.9219
C33.0938 2.48438 23.5938 1 19.7969 1
C14.0938 1 11.0938 5.46875 11.0938 12.8438
C11.0938 14.2344 11.0938 16.7344 12.5938 23.1094
z

M13.0938 25
C17.4062 40.5 26.9062 42.0156 30.0938 42.0156
C34.5 42.0156 37.5 39.4062 37.5 35.5781
C37.5 25 21.5 25 17.2969 25
z
" id="CMMI12-101"/>
      <path d="
M50.2969 66.5156
C50.4062 66.9062 50.5938 67.5 50.5938 68
C50.5938 69 49.5938 69 49.4062 69
C49.2969 69 44.4062 68.5312 43.9062 68.3906
C42.2031 68.3906 40.7031 68.0938 38.9062 68.0938
C36.4062 67.8906 35.7031 67.7969 35.7031 66
C35.7031 65 36.5 65 37.9062 65
C42.7969 65 42.9062 64.1094 42.9062 63.1094
C42.9062 62.5312 42.7031 61.7344 42.5938 61.4375
L36.5 37.4219
C35.4062 40.0156 32.7031 44 27.5 44
C16.2031 44 4 29.4375 4 14.6719
C4 4.79688 9.79688 -1 16.5938 -1
C22.0938 -1 26.7969 3.29688 29.5938 6.59375
C30.5938 0.703125 35.2969 -1 38.2969 -1
C41.2969 -1 43.7031 0.796875 45.5 4.39062
C47.0938 7.78125 48.5 13.875 48.5 14.2656
C48.5 14.7656 48.0938 15.1719 47.5 15.1719
C46.5938 15.1719 46.5 14.6719 46.0938 13.1719
C44.5938 7.28125 42.7031 1 38.5938 1
C35.7031 1 35.5 3.57812 35.5 5.57812
C35.5 5.96875 35.5 8.04688 36.2031 10.8438
z

M30.0938 11.875
C29.5938 10.1719 29.5938 9.98438 28.2031 8.07812
C26 5.28125 21.5938 1 16.9062 1
C12.7969 1 10.5 4.6875 10.5 10.5781
C10.5 16.0625 13.5938 27.2344 15.5 31.4375
C18.9062 38.4219 23.5938 42.0156 27.5 42.0156
C34.0938 42.0156 35.4062 33.8281 35.4062 33.0312
C35.4062 32.9375 35.0938 31.625 35 31.4375
z
" id="CMMI12-100"/>
      <path d="
M74 57.7031
C75.0938 62 76.7031 65 84.2969 65
C84.5938 65 85.7969 65.0938 85.7969 66.8594
C85.7969 68 84.9062 68 84.5 68
C82.5 68 77.4062 68 75.4062 68
L70.5938 68
C69.2031 68 67.4062 68 66 68
C65.4062 68 64.2031 68 64.2031 66.0312
C64.2031 65 65 65 65.7031 65
C71.7031 65 72.0938 62.7031 72.0938 60.9062
C72.0938 60.0156 72 59.7031 71.7031 58.3125
L60.4062 13.2812
L39 66.2969
C38.2969 67.9062 38.2031 68 36 68
L23.7969 68
C21.7969 68 20.9062 68 20.9062 66.0312
C20.9062 65 21.5938 65 23.5 65
C24 65 29.9062 65 29.9062 64.0938
C29.9062 63.8906 29.7031 63.0938 29.5938 62.7969
L16.2969 9.89062
C15.0938 5 12.7031 2.90625 6.09375 2.90625
C5.59375 2.90625 4.59375 2.8125 4.59375 1
C4.59375 0 5.59375 0 5.90625 0
C7.90625 0 13 0 15 0
L19.7969 0
C21.2031 0 22.9062 0 24.2969 0
C25 0 26.0938 0 26.0938 1.90625
C26.0938 2.8125 25.0938 2.90625 24.7031 2.90625
C21.4062 2.90625 18.2031 3.5 18.2031 7.09375
C18.2031 7.89062 18.4062 8.78125 18.5938 9.57812
L32.0938 62.9688
C32.7031 61.9688 32.7031 61.7812 33.0938 60.875
L56.9062 1.73438
C57.4062 0.578125 57.5938 0 58.5 0
C59.5 0 59.5938 0.296875 60 2
z
" id="CMMI12-78"/>
      <path d="
M38.9062 40.8125
C35.7969 40.2188 34.2031 38.0156 34.2031 35.8281
C34.2031 33.4219 36.0938 32.625 37.5 32.625
C40.2969 32.625 42.5938 35.0312 42.5938 38.0156
C42.5938 41.2188 39.5 44 34.5 44
C30.5 44 25.9062 42.2031 21.7031 36.125
C21 41.4062 17 44 13 44
C9.09375 44 7.09375 41.0156 5.90625 38.8125
C4.20312 35.2188 2.70312 29.2344 2.70312 28.7344
C2.70312 28.3438 3.09375 27.8438 3.79688 27.8438
C4.59375 27.8438 4.70312 27.9375 5.29688 30.2344
C6.79688 36.2188 8.70312 42.0156 12.7031 42.0156
C15.0938 42.0156 15.7969 40.3125 15.7969 37.4219
C15.7969 35.2188 14.7969 31.3281 14.0938 28.2344
L11.2969 17.4688
C10.9062 15.5625 9.79688 11.0781 9.29688 9.28125
C8.59375 6.6875 7.5 2 7.5 1.5
C7.5 0.09375 8.59375 -1 10.0938 -1
C11.2031 -1 13.0938 -0.296875 13.7031 1.70312
C14 2.5 17.7031 17.5625 18.2969 19.8594
C18.7969 22.0469 19.4062 24.1562 19.9062 26.3438
C20.2969 27.7344 20.7031 29.3438 21 30.6406
C21.2969 31.5312 24 36.4219 26.5 38.625
C27.7031 39.7188 30.2969 42.0156 34.4062 42.0156
C36 42.0156 37.5938 41.7188 38.9062 40.8125" id="CMMI12-114"/>
      <path d="
M22.7969 20
C24.5 19.7031 27.2031 19.1094 27.7969 19
C29.0938 18.625 33.5938 17.0312 33.5938 12.2344
C33.5938 9.15625 30.7969 1.09375 19.2031 1.09375
C17.0938 1.09375 9.59375 1.09375 7.59375 6.8125
C11.5938 6.3125 13.5938 9.42188 13.5938 11.6406
C13.5938 13.75 12.2031 14.8438 10.2031 14.8438
C8 14.8438 5.09375 13.1406 5.09375 8.625
C5.09375 2.70312 11.0938 -1 19.0938 -1
C34.2969 -1 38.7969 10.1719 38.7969 15.375
C38.7969 16.8594 38.7969 19.6562 35.5938 22.8438
C33.0938 25.25 30.7031 25.75 25.2969 26.8438
C22.5938 27.4375 18.2969 28.3438 18.2969 32.8281
C18.2969 34.8281 20.0938 42.0156 29.5938 42.0156
C33.7969 42.0156 37.9062 40.4531 38.9062 37
C34.5 37 34.2969 33.2031 34.2969 33.1094
C34.2969 31 36.2031 30.4062 37.0938 30.4062
C38.5 30.4062 41.2969 31.4844 41.2969 35.6406
C41.2969 39.7656 37.5 44 29.7031 44
C16.5938 44 13.0938 33.75 13.0938 29.6719
C13.0938 22.0938 20.5 20.5 22.7969 20" id="CMMI12-115"/>
      <path d="
M20.0938 40.0938
L29.2969 40.0938
C31.2031 40.0938 32.2031 40.0938 32.2031 41.8906
C32.2031 43 31.5938 43 29.5938 43
L20.7969 43
L24.5 57.6875
C24.9062 59.0781 24.9062 59.2812 24.9062 60
C24.9062 61.6094 23.5938 62.5 22.2969 62.5
C21.5 62.5 19.2031 62.2031 18.4062 58.9844
L14.5 43
L5.09375 43
C3.09375 43 2.20312 43 2.20312 41.0938
C2.20312 40.0938 2.90625 40.0938 4.79688 40.0938
L13.7031 40.0938
L7.09375 13.7656
C6.29688 10.2812 6 9.28125 6 7.98438
C6 3.29688 9.29688 -1 14.9062 -1
C25 -1 30.4062 13.5781 30.4062 14.2656
C30.4062 14.875 30 15.1719 29.4062 15.1719
C29.2031 15.1719 28.7969 15.1719 28.5938 14.7656
C28.5 14.6719 28.4062 14.5625 27.7031 12.9688
C25.5938 7.98438 21 1 15.2031 1
C12.2031 1 12 3.5 12 5.6875
C12 5.78125 12 7.6875 12.2969 8.875
z
" id="CMMI12-116"/>
      <path d="
M45.5938 27.4375
C45.5938 36.9219 39.4062 44 30.2969 44
C17.0938 44 4.09375 29.6406 4.09375 15.5625
C4.09375 6.09375 10.2969 -1 19.4062 -1
C32.7031 -1 45.5938 13.375 45.5938 27.4375
M19.5 1
C14.5 1 10.7969 4.98438 10.7969 11.9688
C10.7969 16.5625 13.2031 26.75 16 31.7344
C20.5 39.4219 26.0938 42.0156 30.2031 42.0156
C35.0938 42.0156 38.9062 38.0156 38.9062 31.0312
C38.9062 27.0469 36.7969 16.3594 33 10.2812
C28.9062 3.59375 23.4062 1 19.5 1" id="CMMI12-111"/>
      <path d="
M64.2969 31.5156
C65.7969 31.5156 67.2969 31.5156 67.2969 33.2031
C67.2969 35 65.5938 35 63.9062 35
L8 35
C6.29688 35 4.59375 35 4.59375 33.2031
C4.59375 31.5156 6.09375 31.5156 7.59375 31.5156
z

M63.9062 14
C65.5938 14 67.2969 14 67.2969 15.7969
C67.2969 17.4844 65.7969 17.4844 64.2969 17.4844
L7.59375 17.4844
C6.09375 17.4844 4.59375 17.4844 4.59375 15.7969
C4.59375 14 6.29688 14 8 14
z
" id="CMR17-61"/>
      <path d="
M47.4062 40.7188
C44.2031 40.1094 43 37.7188 43 35.8281
C43 33.4219 44.9062 32.625 46.2969 32.625
C49.2969 32.625 51.4062 35.2188 51.4062 37.9219
C51.4062 42.1094 46.5938 44 42.4062 44
C36.2969 44 32.9062 38.0156 32 36.125
C29.7031 44 23.5 44 21.7031 44
C11.5 44 6.09375 30.9375 6.09375 28.7344
C6.09375 28.3438 6.5 27.8438 7.20312 27.8438
C8 27.8438 8.20312 28.4375 8.40625 28.8438
C11.7969 39.9219 18.5 42.0156 21.4062 42.0156
C25.9062 42.0156 26.7969 37.8125 26.7969 35.4219
C26.7969 33.2344 26.2031 30.9375 25 26.1406
L21.5938 12.4688
C20.0938 6.48438 17.2031 1 11.9062 1
C11.4062 1 8.90625 1 6.79688 2.29688
C10.4062 3 11.2031 5.98438 11.2031 7.1875
C11.2031 9.1875 9.70312 10.375 7.79688 10.375
C5.40625 10.375 2.79688 8.28125 2.79688 5.09375
C2.79688 0.890625 7.5 -1 11.7969 -1
C16.5938 -1 20 2.79688 22.0938 6.89062
C23.7031 1 28.7031 -1 32.4062 -1
C42.5938 -1 48 12.0781 48 14.2656
C48 14.7656 47.5938 15.1719 47 15.1719
C46.0938 15.1719 46 14.6719 45.7031 13.875
C43 5.09375 37.2031 1 32.7031 1
C29.2031 1 27.2969 3.59375 27.2969 7.6875
C27.2969 9.875 27.7031 11.4688 29.2969 18.0625
L32.7969 31.625
C34.2969 37.625 37.7031 42.0156 42.2969 42.0156
C42.5 42.0156 45.2969 42.0156 47.4062 40.7188" id="CMMI12-120"/>
      <path d="
M18.4062 4.79688
C18.4062 7.6875 16 9.67188 13.5938 9.67188
C10.7031 9.67188 8.70312 7.28125 8.70312 4.89062
C8.70312 2 11.0938 0 13.5 0
C16.4062 0 18.4062 2.39062 18.4062 4.79688" id="CMMI12-58"/>
     </defs>
     <g transform="translate(813.834588798 175.665692739)scale(0.4 -0.4)">
      <use transform="translate(0.0 14.9439145441)scale(0.996264009963)" xlink:href="#CMMI12-101"/>
      <use transform="translate(45.2120010167 14.9439145441)scale(0.996264009963)" xlink:href="#CMMI12-114"/>
      <use transform="translate(91.8826130526 14.9439145441)scale(0.996264009963)" xlink:href="#CMMI12-114"/>
      <use transform="translate(138.553225089 14.9439145441)scale(0.996264009963)" xlink:href="#CMMI12-111"/>
      <use transform="translate(185.44853467 14.9439145441)scale(0.996264009963)" xlink:href="#CMMI12-114"/>
      <use transform="translate(232.119146706 14.9439145441)scale(0.996264009963)" xlink:href="#CMMI12-115"/>
      <use transform="translate(278.069194257 0.0)scale(0.697381766617)" xlink:href="#CMMI12-100"/>
      <use transform="translate(314.04953288 14.9439145441)scale(0.996264009963)" xlink:href="#CMMI12-116"/>
      <use transform="translate(376.949871819 14.9439145441)scale(0.996264009963)" xlink:href="#CMR17-61"/>
      <use transform="translate(476.338668956 14.9439145441)scale(0.996264009963)" xlink:href="#CMR17-48"/>
      <use transform="translate(522.029146073 14.9439145441)scale(0.996264009963)" xlink:href="#CMMI12-58"/>
      <use transform="translate(549.126323163 14.9439145441)scale(0.996264009963)" xlink:href="#CMR17-48"/>
      <use transform="translate(594.81680028 14.9439145441)scale(0.996264009963)" xlink:href="#CMR17-48"/>
      <use transform="translate(640.507277397 14.9439145441)scale(0.996264009963)" xlink:href="#CMR17-48"/>
      <use transform="translate(686.197754514 14.9439145441)scale(0.996264009963)" xlink:href="#CMR17-49"/>
      <use transform="translate(731.888231631 0.0)scale(0.697381766617)" xlink:href="#CMMI12-78"/>
      <use transform="translate(794.351336906 14.9439145441)scale(0.996264009963)" xlink:href="#CMMI12-120"/>
      <use transform="translate(877.45940516 14.9439145441)scale(0.996264009963)" xlink:href="#CMR17-61"/>
      <use transform="translate(976.848202298 14.9439145441)scale(0.996264009963)" xlink:href="#CMR17-49"/>
      <use transform="translate(1022.53867942 14.9439145441)scale(0.996264009963)" xlink:href="#CMR17-48"/>
      <use transform="translate(1068.22915653 14.9439145441)scale(0.996264009963)" xlink:href="#CMR17-48"/>
     </g>
    </g>
    <g id="line2d_63">
     <path d="
M713.835 221.819
L769.835 221.819" style="fill:none;stroke:#008000;stroke-width:2;"/>
    </g>
    <g id="line2d_64"/>
    <g id="text_9">
     <!-- $errors_dt=0.0001_Nx=50$ -->
     <defs>
      <path d="
M11.4062 57.6875
C12.4062 57.2812 16.5 56 20.7031 56
C30 56 35.0938 61.0156 38 63.9219
C38 64.7344 38 65.25 37.4062 65.25
C37.2969 65.25 37.0938 65.25 36.2969 64.8281
C32.7969 63.3125 28.7031 62.0781 23.7031 62.0781
C20.7031 62.0781 16.2031 62.5 11.2969 64.7344
C10.2031 65.25 10 65.25 9.90625 65.25
C9.40625 65.25 9.29688 65.1406 9.29688 63.1562
L9.29688 34.2812
C9.29688 32.5 9.29688 32 10.2969 32
C10.7969 32 11 32.2031 11.5 32.9062
C14.7031 37.4844 19.0938 39.4062 24.0938 39.4062
C27.5938 39.4062 35.0938 37.2188 35.0938 20.1406
C35.0938 16.9531 35.0938 11.1719 32.0938 6.57812
C29.5938 2.48438 25.7031 0.390625 21.4062 0.390625
C14.7969 0.390625 8.09375 5 6.29688 12.7188
C6.70312 12.6094 7.5 12.4219 7.90625 12.4219
C9.20312 12.4219 11.7031 13.125 11.7031 16.2188
C11.7031 18.9062 9.79688 20 7.90625 20
C5.59375 20 4.09375 18.5938 4.09375 15.7969
C4.09375 7.09375 11 -2 21.5938 -2
C31.9062 -2 41.7031 6.875 41.7031 19.75
C41.7031 31.7188 33.9062 41 24.2031 41
C19.0938 41 14.7969 39.0938 11.4062 35.4531
z
" id="CMR17-53"/>
     </defs>
     <g transform="translate(813.834588798 235.819331073)scale(0.4 -0.4)">
      <use transform="translate(0.0 14.9439145441)scale(0.996264009963)" xlink:href="#CMMI12-101"/>
      <use transform="translate(45.2120010167 14.9439145441)scale(0.996264009963)" xlink:href="#CMMI12-114"/>
      <use transform="translate(91.8826130526 14.9439145441)scale(0.996264009963)" xlink:href="#CMMI12-114"/>
      <use transform="translate(138.553225089 14.9439145441)scale(0.996264009963)" xlink:href="#CMMI12-111"/>
      <use transform="translate(185.44853467 14.9439145441)scale(0.996264009963)" xlink:href="#CMMI12-114"/>
      <use transform="translate(232.119146706 14.9439145441)scale(0.996264009963)" xlink:href="#CMMI12-115"/>
      <use transform="translate(278.069194257 0.0)scale(0.697381766617)" xlink:href="#CMMI12-100"/>
      <use transform="translate(314.04953288 14.9439145441)scale(0.996264009963)" xlink:href="#CMMI12-116"/>
      <use transform="translate(376.949871819 14.9439145441)scale(0.996264009963)" xlink:href="#CMR17-61"/>
      <use transform="translate(476.338668956 14.9439145441)scale(0.996264009963)" xlink:href="#CMR17-48"/>
      <use transform="translate(522.029146073 14.9439145441)scale(0.996264009963)" xlink:href="#CMMI12-58"/>
      <use transform="translate(549.126323163 14.9439145441)scale(0.996264009963)" xlink:href="#CMR17-48"/>
      <use transform="translate(594.81680028 14.9439145441)scale(0.996264009963)" xlink:href="#CMR17-48"/>
      <use transform="translate(640.507277397 14.9439145441)scale(0.996264009963)" xlink:href="#CMR17-48"/>
      <use transform="translate(686.197754514 14.9439145441)scale(0.996264009963)" xlink:href="#CMR17-49"/>
      <use transform="translate(731.888231631 0.0)scale(0.697381766617)" xlink:href="#CMMI12-78"/>
      <use transform="translate(794.351336906 14.9439145441)scale(0.996264009963)" xlink:href="#CMMI12-120"/>
      <use transform="translate(877.45940516 14.9439145441)scale(0.996264009963)" xlink:href="#CMR17-61"/>
      <use transform="translate(976.848202298 14.9439145441)scale(0.996264009963)" xlink:href="#CMR17-53"/>
      <use transform="translate(1022.53867942 14.9439145441)scale(0.996264009963)" xlink:href="#CMR17-48"/>
     </g>
    </g>
   </g>
  </g>
 </g>
 <defs>
  <clipPath id="p2779b25a8c">
   <rect height="864.0" width="1116.0" x="180.0" y="108.0"/>
  </clipPath>
 </defs>
</svg>
